<svg width="48" height="48" viewBox="0 0 48 48" fill="none" xmlns="http://www.w3.org/2000/svg">
<circle cx="24" cy="24" r="23.5" stroke="#E10148"/>
<path d="M12.1252 27.2216C11.2635 27.2216 10.5248 26.9186 9.90931 26.3125C9.29378 25.7064 8.99075 24.9678 9.00022 24.0966C8.99075 23.2443 9.29378 22.5152 9.90931 21.9091C10.5248 21.303 11.2635 21 12.1252 21C12.9585 21 13.683 21.303 14.2985 21.9091C14.9235 22.5152 15.2407 23.2443 15.2502 24.0966C15.2407 24.6742 15.0892 25.1998 14.7957 25.6733C14.5116 26.1468 14.1328 26.5256 13.6593 26.8097C13.1953 27.0843 12.6839 27.2216 12.1252 27.2216Z" fill="#E10148"/>
<path d="M23.7268 27.2216C22.865 27.2216 22.1264 26.9186 21.5109 26.3125C20.8953 25.7064 20.5923 24.9678 20.6018 24.0966C20.5923 23.2443 20.8953 22.5152 21.5109 21.9091C22.1264 21.303 22.865 21 23.7268 21C24.5601 21 25.2845 21.303 25.9001 21.9091C26.5251 22.5152 26.8423 23.2443 26.8518 24.0966C26.8423 24.6742 26.6908 25.1998 26.3972 25.6733C26.1131 26.1468 25.7344 26.5256 25.2609 26.8097C24.7969 27.0843 24.2855 27.2216 23.7268 27.2216Z" fill="#E10148"/>
<path d="M35.3283 27.2216C34.4666 27.2216 33.728 26.9186 33.1124 26.3125C32.4969 25.7064 32.1939 24.9678 32.2033 24.0966C32.1939 23.2443 32.4969 22.5152 33.1124 21.9091C33.728 21.303 34.4666 21 35.3283 21C36.1617 21 36.8861 21.303 37.5016 21.9091C38.1266 22.5152 38.4439 23.2443 38.4533 24.0966C38.4439 24.6742 38.2924 25.1998 37.9988 25.6733C37.7147 26.1468 37.3359 26.5256 36.8624 26.8097C36.3984 27.0843 35.8871 27.2216 35.3283 27.2216Z" fill="#E10148"/>
</svg>
