<svg width="73" height="54" viewBox="0 0 73 54" fill="none" xmlns="http://www.w3.org/2000/svg">
<g id="Group 268">
<path id="Vector" d="M26.5 24.5C40.3071 24.5 51.5 19.4632 51.5 13.25C51.5 7.0368 40.3071 2 26.5 2C12.6929 2 1.5 7.0368 1.5 13.25C1.5 19.4632 12.6929 24.5 26.5 24.5Z" stroke="#E10148" stroke-width="2.5" stroke-linecap="round" stroke-linejoin="round"/>
<path id="Vector_2" d="M1.5 13.25V25.75C1.5 31.9625 12.6937 37 26.5 37C40.3063 37 51.5 31.9625 51.5 25.75V13.25" stroke="#E10148" stroke-width="2.5" stroke-linecap="round" stroke-linejoin="round"/>
<path id="Vector_3" d="M16.5 23.5625V36.0625" stroke="#E10148" stroke-width="2.5" stroke-linecap="round" stroke-linejoin="round"/>
<path id="Vector_4" d="M51.5004 17.2246C62.9129 18.2684 71.5004 22.8059 71.5004 28.2496C71.5004 34.4621 60.3066 39.4996 46.5004 39.4996C40.3754 39.4996 34.7629 38.509 30.416 36.8621" stroke="#E10148" stroke-width="2.5" stroke-linecap="round" stroke-linejoin="round"/>
<path id="Vector_5" d="M21.5 36.775V40.75C21.5 46.9625 32.6937 52 46.5 52C60.3063 52 71.5 46.9625 71.5 40.75V28.25" stroke="#E10148" stroke-width="2.5" stroke-linecap="round" stroke-linejoin="round"/>
<path id="Vector_6" d="M56.5 38.5625V51.0625" stroke="#E10148" stroke-width="2.5" stroke-linecap="round" stroke-linejoin="round"/>
<path id="Vector_7" d="M36.5 23.5625V51.0625" stroke="#E10148" stroke-width="2.5" stroke-linecap="round" stroke-linejoin="round"/>
</g>
</svg>
