<svg width="62" height="59" viewBox="0 0 62 59" fill="none" xmlns="http://www.w3.org/2000/svg">
<path d="M7.29289 58.2071C7.68342 58.5976 8.31658 58.5976 8.70711 58.2071L15.0711 51.8431C15.4616 51.4526 15.4616 50.8195 15.0711 50.4289C14.6805 50.0384 14.0474 50.0384 13.6569 50.4289L8 56.0858L2.34315 50.4289C1.95262 50.0384 1.31946 50.0384 0.928932 50.4289C0.538408 50.8195 0.538408 51.4526 0.928932 51.8431L7.29289 58.2071ZM9 57.5V41H7V57.5H9ZM48 2H62V0H48V2ZM9 41C9 19.4609 26.4609 2 48 2V0C25.3563 0 7 18.3563 7 41H9Z" fill="#959595"/>
</svg> 