<svg width="67" height="54" viewBox="0 0 67 54" fill="none" xmlns="http://www.w3.org/2000/svg">
<path d="M57.3607 24.7309C61.7533 24.7309 65.3142 21.17 65.3142 16.7775C65.3142 12.3849 61.7533 8.82397 57.3607 8.82397C52.9681 8.82397 49.4072 12.3849 49.4072 16.7775C49.4072 21.17 52.9681 24.7309 57.3607 24.7309Z" stroke="#E10148" stroke-width="2.5" stroke-linecap="round" stroke-linejoin="round"/>
<path d="M13.0486 52H3.95895C3.35626 52 2.77826 51.7606 2.3521 51.3344C1.92594 50.9082 1.68652 50.3302 1.68652 49.7276V38.3654C1.68652 37.7628 1.92594 37.1848 2.3521 36.7586C2.77826 36.3324 3.35626 36.093 3.95895 36.093H13.0486" stroke="#E10148" stroke-width="2.5" stroke-linecap="round" stroke-linejoin="round"/>
<path d="M31.2282 38.3656H40.3179L59.3495 33.9883C60.0492 33.7966 60.7837 33.7687 61.4959 33.907C62.2081 34.0453 62.8788 34.346 63.4558 34.7857C64.0329 35.2254 64.5008 35.7922 64.8232 36.4422C65.1456 37.0921 65.3137 37.8076 65.3146 38.5331C65.3149 39.4091 65.0711 40.2679 64.6105 41.013C64.1499 41.7581 63.4907 42.3601 62.707 42.7513L51.68 47.4553L33.5006 52.0001H13.0488V36.0931L20.1502 28.9918C20.7849 28.3593 21.5381 27.8581 22.3667 27.5169C23.1953 27.1757 24.083 27.0012 24.9791 27.0034H39.1817C40.6884 27.0034 42.1334 27.602 43.1988 28.6674C44.2642 29.7328 44.8628 31.1778 44.8628 32.6845C44.8628 34.1912 44.2642 35.6362 43.1988 36.7016C42.1334 37.767 40.6884 38.3656 39.1817 38.3656H31.2282Z" stroke="#E10148" stroke-width="2.5" stroke-linecap="round" stroke-linejoin="round"/>
<path d="M49.4077 17.1434C47.864 17.8735 46.1264 18.0873 44.4518 17.7534C42.7772 17.4195 41.2545 16.5554 40.109 15.2891C38.9634 14.0228 38.2559 12.4214 38.0909 10.7218C37.926 9.02219 38.3124 7.31463 39.193 5.85165C40.0737 4.38868 41.4018 3.24797 42.9809 2.59824C44.5601 1.94851 46.3064 1.82427 47.9616 2.24387C49.6169 2.66348 51.0931 3.60466 52.172 4.92822C53.2509 6.25178 53.8752 7.88743 53.9525 9.59326" stroke="#E10148" stroke-width="2.5" stroke-linecap="round" stroke-linejoin="round"/>
</svg> 