<svg width="48" height="48" viewBox="0 0 48 48" fill="none" xmlns="http://www.w3.org/2000/svg">
<g id="Group 285">
<circle id="Ellipse 33" cx="24" cy="24" r="23.5" stroke="#E10148"/>
<path id="?" d="M21.0085 29.9375V29.5682C21.018 27.8542 21.179 26.4905 21.4915 25.4773C21.8134 24.464 22.268 23.6496 22.8551 23.0341C23.4422 22.4091 24.1572 21.8362 25 21.3153C25.5777 20.9555 26.0938 20.5625 26.5483 20.1364C27.0123 19.7008 27.3769 19.2178 27.642 18.6875C27.9072 18.1477 28.0398 17.5464 28.0398 16.8835C28.0398 16.1354 27.8646 15.4867 27.5142 14.9375C27.1638 14.3883 26.6903 13.9621 26.0938 13.6591C25.5066 13.3561 24.8485 13.2045 24.1193 13.2045C23.447 13.2045 22.8078 13.3513 22.2017 13.6449C21.6051 13.929 21.108 14.3646 20.7102 14.9517C20.322 15.5294 20.1042 16.2633 20.0568 17.1534H15C15.0473 15.3542 15.483 13.8485 16.3068 12.6364C17.1402 11.4242 18.2386 10.5152 19.6023 9.90909C20.9754 9.30303 22.4905 9 24.1477 9C25.9564 9 27.5473 9.31723 28.9205 9.9517C30.303 10.5862 31.3778 11.4905 32.1449 12.6648C32.9214 13.8295 33.3097 15.2121 33.3097 16.8125C33.3097 17.892 33.1345 18.858 32.7841 19.7102C32.4432 20.5625 31.9555 21.3201 31.321 21.983C30.6866 22.6458 29.9337 23.2377 29.0625 23.7585C28.2955 24.232 27.6657 24.7244 27.1733 25.2358C26.6903 25.7472 26.3305 26.3485 26.0938 27.0398C25.8665 27.7216 25.7481 28.5644 25.7386 29.5682V29.9375H21.0085ZM23.4801 38.8011C22.6278 38.8011 21.8939 38.4981 21.2784 37.892C20.6629 37.286 20.3551 36.5473 20.3551 35.6761C20.3551 34.8239 20.6629 34.0947 21.2784 33.4886C21.8939 32.8826 22.6278 32.5795 23.4801 32.5795C24.3229 32.5795 25.0521 32.8826 25.6676 33.4886C26.2926 34.0947 26.6051 34.8239 26.6051 35.6761C26.6051 36.2538 26.4583 36.7794 26.1648 37.2528C25.8807 37.7263 25.5019 38.1051 25.0284 38.3892C24.5644 38.6638 24.0483 38.8011 23.4801 38.8011Z" fill="#E10148"/>
</g>
</svg>
