<svg width="62" height="59" viewBox="0 0 62 59" fill="none" xmlns="http://www.w3.org/2000/svg">
  <path d="M54.7071 58.2071C54.3166 58.5976 53.6834 58.5976 53.2929 58.2071L46.9289 51.8431C46.5384 51.4526 46.5384 50.8195 46.9289 50.4289C47.3195 50.0384 47.9526 50.0384 48.3431 50.4289L54 56.0858L59.6569 50.4289C60.0474 50.0384 60.6805 50.0384 61.0711 50.4289C61.4616 50.8195 61.4616 51.4526 61.0711 51.8431L54.7071 58.2071ZM53 57.5V41H55V57.5H53ZM14 2H0V0H14V2ZM53 41C53 19.4609 35.5391 2 14 2V0C36.6437 0 55 18.3563 55 41H53Z" fill="#959595"/>
</svg>