<svg width="63" height="54" viewBox="0 0 63 54" fill="none" xmlns="http://www.w3.org/2000/svg">
<g id="Group 267">
<path id="Vector" d="M47.4097 38.3634C54.9409 38.3634 61.046 32.2582 61.046 24.7271C61.046 17.196 54.9409 11.0908 47.4097 11.0908C39.8786 11.0908 33.7734 17.196 33.7734 24.7271C33.7734 32.2582 39.8786 38.3634 47.4097 38.3634Z" stroke="#E10148" stroke-width="2.5" stroke-linecap="round" stroke-linejoin="round"/>
<path id="Vector_2" d="M56.5001 34.9005V51.9999L47.4092 47.4545L38.3184 51.9999V34.8977" stroke="#E10148" stroke-width="2.5" stroke-linecap="round" stroke-linejoin="round"/>
<path id="Vector_3" d="M29.2277 42.9089H4.2278C3.62503 42.9089 3.04696 42.6695 2.62074 42.2432C2.19452 41.817 1.95508 41.239 1.95508 40.6362V4.27272C1.95508 3.66996 2.19452 3.09188 2.62074 2.66566C3.04696 2.23945 3.62503 2 4.2278 2H54.2276C54.8303 2 55.4084 2.23945 55.8346 2.66566C56.2608 3.09188 56.5003 3.66996 56.5003 4.27272" stroke="#E10148" stroke-width="2.5" stroke-linecap="round" stroke-linejoin="round"/>
<path id="Vector_4" d="M13.3184 27H24.6819" stroke="#E10148" stroke-width="2.5" stroke-linecap="round" stroke-linejoin="round"/>
<path id="Vector_5" d="M13.3184 17.9089H24.6819" stroke="#E10148" stroke-width="2.5" stroke-linecap="round" stroke-linejoin="round"/>
</g>
</svg>
