<svg width="99" height="298" viewBox="0 0 99 298" fill="none" xmlns="http://www.w3.org/2000/svg">
<path d="M46.9379 290.707C47.3284 290.317 47.3284 289.683 46.9379 289.293L40.5739 282.929C40.1834 282.538 39.5502 282.538 39.1597 282.929C38.7692 283.319 38.7692 283.953 39.1597 284.343L44.8166 290L39.1597 295.657C38.7692 296.047 38.7692 296.681 39.1597 297.071C39.5502 297.462 40.1834 297.462 40.5739 297.071L46.9379 290.707ZM99 0H81V2H99V0ZM0 81V250H2V81H0ZM41 291H46.2308V289H41V291ZM0 250C0 272.644 18.3563 291 41 291V289C19.4609 289 2 271.539 2 250H0ZM81 0C36.2649 0 0 36.2649 0 81H2C2 37.3695 37.3695 2 81 2V0Z" fill="#959595"/>
</svg>
